# File produced by Open Asset Import Library (http://www.assimp.sf.net)
# (assimp v3.1.187496374)

mtllib parkSign.obj.mtl

# 78 vertex positions
v  -5 275 139.905
v  -5 275 -139.905
v  -5 75 -139.905
v  -5 75.0001 139.905
v  5 275 -139.905
v  5 75 -139.905
v  5 275 139.905
v  5 75.0001 139.905
v  10 0 -160
v  10 0 -140
v  -10 0 -140
v  -10 0 -160
v  10 300 -160
v  -10 300 -160
v  -10 300 -140
v  9.99999 300 -140
v  9.99999 300 -140
v  -4.76837e-06 300 -140
v  10 300 -140
v  10 300 140
v  2.38419e-06 300 140
v  -10 300 140
v  -10 300 140
v  -10 300 -150
v  -10 300 160
v  -10 300 150
v  9.99999 300 160
v  9.99999 300 160
v  -4.76837e-06 300 160
v  2.38419e-06 300 -160
v  40 277.5 -160
v  36.525 273.75 -160
v  6.525 296.25 -160
v  -40 277.5 -160
v  -7.08152 296.25 -160
v  -37.0815 273.75 -160
v  10 4.57764e-05 140
v  10 4.57764e-05 160
v  -10 4.57764e-05 160
v  -10 4.57764e-05 140
v  10 300 150
v  -40 277.5 140
v  -7.08152 296.25 140
v  -37.0815 273.75 140
v  40 277.5 -140
v  6.52498 296.25 -140
v  36.525 273.75 -140
v  10 300 -150
v  40 277.5 160
v  6.52498 296.25 160
v  36.525 273.75 160
v  6.52499 296.25 -150
v  -7.08153 296.25 140
v  -7.08153 296.25 -140
v  -7.08152 296.25 -150
v  -40 277.5 -140
v  -40 277.5 -150
v  -37.0815 273.75 -150
v  -37.0815 273.75 -140
v  -40 277.5 140
v  -37.0815 273.75 140
v  40 277.5 -150
v  36.525 273.75 -150
v  -7.08153 296.25 160
v  -37.0815 273.75 160
v  -37.0815 273.75 150
v  -40 277.5 150
v  -40 277.5 160
v  -7.08152 296.25 150
v  6.52499 296.25 150
v  6.525 296.25 140
v  36.525 273.75 150
v  6.525 296.25 -140
v  36.525 273.75 -140
v  36.525 273.75 140
v  40 277.5 150
v  40 277.5 140
v  40 277.5 -140

# 78 UV coordinates
vt 0.4375 0.916666666666667
vt 0.4375 0.916666666666667
vt 0.4375 0.25
vt 0.4375 0.250000333333333
vt 0.5625 0.916666666666667
vt 0.5625 0.25
vt 0.5625 0.916666666666667
vt 0.5625 0.250000333333333
vt 0.625 0
vt 0.625 0
vt 0.375 0
vt 0.375 0
vt 0.625 1
vt 0.375 1
vt 0.375 1
vt 0.624999875 1
vt 0.624999875 1
vt 0.499999940395375 1
vt 0.625 1
vt 0.625 1
vt 0.500000029802375 1
vt 0.375 1
vt 0.375 1
vt 0.375 1
vt 0.375 1
vt 0.375 1
vt 0.624999875 1
vt 0.624999875 1
vt 0.499999940395375 1
vt 0.500000029802375 1
vt 1 0.925
vt 0.9565625 0.9125
vt 0.5815625 0.9875
vt 0 0.925
vt 0.411481 0.9875
vt 0.03648125 0.9125
vt 0.625 0.000000152588
vt 0.625 0.000000152588
vt 0.375 0.000000152588
vt 0.375 0.000000152588
vt 0.625 1
vt 0 0.925
vt 0.411481 0.9875
vt 0.03648125 0.9125
vt 1 0.925
vt 0.58156225 0.9875
vt 0.9565625 0.9125
vt 0.625 1
vt 1 0.925
vt 0.58156225 0.9875
vt 0.9565625 0.9125
vt 0.581562375 0.9875
vt 0.411480875 0.9875
vt 0.411480875 0.9875
vt 0.411481 0.9875
vt 0 0.925
vt 0 0.925
vt 0.03648125 0.9125
vt 0.03648125 0.9125
vt 0 0.925
vt 0.03648125 0.9125
vt 1 0.925
vt 0.9565625 0.9125
vt 0.411480875 0.9875
vt 0.03648125 0.9125
vt 0.03648125 0.9125
vt 0 0.925
vt 0 0.925
vt 0.411481 0.9875
vt 0.581562375 0.9875
vt 0.5815625 0.9875
vt 0.9565625 0.9125
vt 0.5815625 0.9875
vt 0.9565625 0.9125
vt 0.9565625 0.9125
vt 1 0.925
vt 1 0.925
vt 1 0.925

# 44 vertex normals
vn -10 0 -0
vn 0 -1.62921e-06 -10
vn 10 0 0
vn 0 1.62921e-06 10
vn 0 -150 2.44381e-05
vn 0 150 -2.44381e-05
vn 2.98023e-07 150 -2.44381e-05
vn 2.23517e-06 2.51929e-05 -10
vn 1.4066e-06 0.00027969 -10
vn 0 0.000299462 -10
vn 0 0.000141422 -10
vn -10 -1.78814e-05 -2.38418e-06
vn -2.5332e-06 -1.4017e-05 10
vn -1.4066e-06 1.62921e-06 10
vn 10 4.47034e-06 2.68221e-06
vn -10 -1.8999e-05 -2.38418e-06
vn 0 -0.000150363 10
vn 10 4.47035e-06 2.68221e-06
vn -0.717569 149.613 -2.47493e-05
vn -0.717569 149.613 -2.48028e-05
vn 0.853484 149.453 -2.43489e-05
vn 0.853485 149.453 -2.40946e-05
vn -0.853483 -149.453 2.38402e-05
vn -0.853486 -149.453 2.43489e-05
vn -0.853483 -149.453 2.43489e-05
vn 0.717569 -149.613 2.4589e-05
vn 0.717569 -149.613 2.48028e-05
vn 0.499376 -149.813 2.44142e-05
vn 0.499375 -149.813 2.45068e-05
vn -0.853483 -149.453 2.43489e-05
vn -0.853483 -149.453 2.38402e-05
vn 0.853487 149.453 -2.41582e-05
vn 0.853485 149.453 -2.40946e-05
vn 0 0.00963656 10
vn -0.499376 149.813 -2.44138e-05
vn -0.499376 -149.813 2.41596e-05
vn -0.499376 -149.813 2.43911e-05
vn 0.71757 -149.613 2.48028e-05
vn 0.717569 -149.613 2.4589e-05
vn 0.717571 -149.613 2.43751e-05
vn 1.4066e-06 0.000842329 -10
vn -0.717569 149.613 -2.48028e-05
vn -0.717569 149.613 -2.43751e-05
vn 0.499376 149.813 -2.43952e-05

# Mesh 'Leg 1.001_Cube.001' with 146 faces
g Leg 1.001_Cube.001
usemtl Material
f  1//1 2//1 3//1
f  1//1 3//1 4//1
f  2//2 5//2 6//2
f  2//2 6//2 3//2
f  5//3 7//3 8//3
f  5//3 8//3 6//3
f  7//4 1//4 4//4
f  7//4 4//4 8//4
f  4//5 3//5 6//5
f  4//5 6//5 8//5
f  7//6 5//6 2//6
f  7//6 2//6 1//6
f  9//5 10//5 11//5
f  9//5 11//5 12//5
f  13//7 14//7 15//7
f  13//7 15//7 16//7
f  17//5 16//5 15//5
f  17//5 15//5 18//5
f  17//5 19//5 20//5
f  17//5 20//5 21//5
f  17//5 21//5 22//5
f  17//5 23//5 15//5
f  15//5 14//5 14//5
f  15//5 14//5 24//5
f  25//5 22//5 26//5
f  27//5 28//5 25//5
f  27//5 25//5 29//5
f  30//8 13//8 9//8
f  13//8 31//9 32//9
f  13//8 32//9 33//9
f  30//8 9//8 12//8
f  12//8 14//8 30//8
f  34//10 14//8 35//10
f  34//10 35//10 36//10
f  37//5 38//5 39//5
f  37//5 39//5 40//5
f  20//6 22//6 25//6
f  20//6 25//6 28//6
f  20//6 28//6 27//6
f  20//6 27//6 41//6
f  20//6 21//6 22//6
f  21//11 20//11 37//11
f  21//11 37//11 40//11
f  40//11 22//11 21//11
f  42//2 22//11 43//2
f  42//2 43//2 44//2
f  12//12 11//12 15//12
f  12//12 15//12 24//12
f  24//12 14//12 12//12
f  11//13 10//13 17//13
f  11//13 17//13 18//13
f  18//13 15//13 11//13
f  45//14 17//13 46//14
f  45//14 46//14 47//14
f  10//15 9//15 13//15
f  10//15 13//15 48//15
f  48//15 17//15 10//15
f  40//16 39//16 25//16
f  40//16 25//16 26//16
f  26//16 22//16 40//16
f  39//17 38//17 27//17
f  39//17 27//17 29//17
f  29//17 25//17 39//17
f  49//4 27//17 50//4
f  49//4 50//4 51//4
f  38//18 37//18 20//18
f  38//18 20//18 41//18
f  41//18 27//18 38//18
f  48//19 13//19 33//19
f  48//19 33//19 52//19
f  17//20 48//19 52//19
f  17//20 52//19 46//20
f  15//21 23//21 53//21
f  15//21 53//21 54//21
f  24//22 15//21 54//21
f  24//22 54//21 55//22
f  14//22 24//22 55//22
f  14//22 55//22 35//22
f  56//23 57//23 58//23
f  56//23 58//23 59//23
f  60//24 56//23 59//23
f  57//23 34//25 36//25
f  57//23 36//25 58//23
f  60//24 59//23 61//24
f  31//26 62//26 63//26
f  31//26 63//26 32//26
f  62//26 45//27 47//27
f  62//26 47//27 63//26
f  36//28 35//28 55//28
f  36//28 55//28 54//28
f  36//28 54//28 53//28
f  36//28 53//28 61//28
f  43//29 64//29 65//29
f  43//29 65//29 66//29
f  66//29 44//29 43//29
f  67//30 42//30 44//30
f  67//30 44//30 66//30
f  68//31 67//30 66//30
f  68//31 66//30 65//31
f  26//32 25//32 64//32
f  26//32 64//32 69//32
f  22//33 26//32 69//32
f  22//33 69//32 43//33
f  25//34 68//34 65//34
f  25//34 65//34 64//34
f  23//34 60//34 61//34
f  23//34 61//34 53//34
f  15//35 14//35 34//35
f  15//35 34//35 57//35
f  15//35 57//35 56//35
f  15//35 56//35 60//35
f  15//35 42//35 67//35
f  15//35 67//35 68//35
f  15//35 68//35 25//35
f  52//36 33//36 32//36
f  52//36 32//36 63//36
f  52//36 63//36 47//36
f  52//36 47//36 46//36
f  51//37 50//37 70//37
f  70//37 71//37 51//37
f  71//37 72//37 51//37
f  71//37 73//37 74//37
f  71//37 74//37 75//37
f  71//37 75//37 72//37
f  76//38 49//38 51//38
f  76//38 51//38 72//38
f  77//39 76//38 72//38
f  77//39 72//38 75//39
f  78//40 77//39 75//39
f  78//40 75//39 74//40
f  19//41 78//41 74//41
f  19//41 74//41 73//41
f  27//42 41//42 70//42
f  27//42 70//42 50//42
f  41//42 20//43 71//43
f  41//42 71//43 70//42
f  20//43 19//43 73//43
f  20//43 73//43 71//43
f  31//44 13//44 48//44
f  20//44 62//44 31//44
f  20//44 31//44 48//44
f  20//44 27//44 49//44
f  20//44 49//44 76//44
f  20//44 76//44 77//44
f  20//44 77//44 78//44
f  20//44 45//44 62//44

